<svg height="512pt" viewBox="0 0 512.0005 512" width="512pt" xmlns="http://www.w3.org/2000/svg" xmlns:xlink="http://www.w3.org/1999/xlink"><linearGradient id="a" gradientUnits="userSpaceOnUse" x1=".000366" x2="512.0001" y1="256.0007" y2="256.0007"><stop offset="0" stop-color="#80d8ff"/><stop offset="1" stop-color="#ea80fc"/></linearGradient><path d="m295.332031 393.332031h-196.664062c-54.40625 0-98.667969 44.261719-98.667969 98.667969 0 11.046875 8.953125 20 20 20h354c11.046875 0 20-8.953125 20-20 0-54.40625-44.261719-98.667969-98.667969-98.667969zm-251.820312 78.667969c8.191406-22.53125 29.824219-38.667969 55.15625-38.667969h196.664062c25.332031 0 46.964844 16.136719 55.15625 38.667969zm462.632812-112.140625-143.191406-143.191406 64.523437-64.523438c7.808594-7.8125 7.808594-20.476562 0-28.285156l-118-118c-7.8125-7.8125-20.476562-7.8125-28.285156 0l-157.332031 157.332031c-7.8125 7.8125-7.8125 20.476563 0 28.285156l118 118c7.808594 7.808594 20.472656 7.8125 28.285156 0l64.523438-64.523437 143.191406 143.191406c7.808594 7.808594 20.472656 7.808594 28.285156 0 7.808594-7.8125 7.808594-20.476562 0-28.285156zm-250.144531-92.808594-89.714844-89.71875 129.046875-129.046875 89.71875 89.714844zm0 0" fill="url(#a)"/></svg>